Coordinates
version=1
nRows=17
nColumns=40
inDegrees=yes

Units are S.I. units (second, meters, Newtons, ...)
Angles are in degrees.

endheader
time	pelvis_tilt	pelvis_list	pelvis_rotation	pelvis_tx	pelvis_ty	pelvis_tz	hip_flexion_r	hip_adduction_r	hip_rotation_r	knee_angle_r	knee_angle_r_beta	ankle_angle_r	subtalar_angle_r	mtp_angle_r	hip_flexion_l	hip_adduction_l	hip_rotation_l	knee_angle_l	knee_angle_l_beta	ankle_angle_l	subtalar_angle_l	mtp_angle_l	lumbar_extension	lumbar_bending	lumbar_rotation	arm_flex_r	arm_add_r	arm_rot_r	elbow_flex_r	pro_sup_r	wrist_flex_r	wrist_dev_r	arm_flex_l	arm_add_l	arm_rot_l	elbow_flex_l	pro_sup_l	wrist_flex_l	wrist_dev_l
      2.67000000	      2.51061336	     -3.42528660	      1.48243622	      0.71185365	      0.88792042	      1.01449629	     -8.51991954	      4.35593188	    -14.30567533	    -21.86580759	     -0.38163034	     11.84546502	      5.35181717	     -5.19798736	     19.50559099	      3.73704606	     12.48419127	    -15.50064282	     -0.27053725	     -4.97526420	     -2.24614324	     -8.56392378	     -9.81728449	      4.36447186	      5.86157044	     14.93214939	    -11.38061644	     18.40578439	     23.29346588	     89.95437384	      0.00000000	      0.00000000	     -1.49495855	      6.34211098	    -14.17752027	     17.49925891	     89.95437384	      0.00000000	      0.00000000
      2.68000000	      2.26167483	     -3.37542634	      1.27192174	      0.71891315	      0.88742776	      1.01366594	     -8.47108453	      4.14999557	    -14.01040248	    -22.32935490	     -0.38972076	     11.51531295	      5.17470442	     -5.09967222	     19.53367140	      3.64479669	     12.19608275	    -15.86511658	     -0.27689852	     -5.14922292	     -2.19189394	     -8.36562650	     -9.57716081	      4.21210248	      5.73453049	     14.53455342	    -11.28070318	     18.35736170	     23.55470425	     89.95437384	      0.00000000	      0.00000000	     -1.76780886	      6.39288662	    -14.12589764	     17.71131972	     89.95437384	      0.00000000	      0.00000000
      2.69000000	      2.41662860	     -2.63878709	      0.66370905	      0.72635632	      0.88816323	      1.01280202	     -8.86419816	      3.09285799	    -13.30191410	    -22.85871932	     -0.39895991	     11.18319355	      4.95078891	     -5.29167074	     18.42668980	      2.88213101	     12.85222807	    -14.87939832	     -0.25969449	     -6.47405055	     -2.31604057	     -8.31035991	     -9.75323128	      3.30019959	      5.97691552	     14.36819642	    -10.96402640	     18.12562382	     23.03970022	     89.95437384	      0.00000000	      0.00000000	     -1.68870054	      6.43595603	    -14.86388291	     17.27208458	     89.95437384	      0.00000000	      0.00000000
      2.70000000	      2.17215383	     -2.60454812	      0.62203107	      0.73351834	      0.88814009	      1.01186144	     -8.81706999	      2.95609567	    -13.05077012	    -23.31187242	     -0.40686893	     10.84824091	      4.79318451	     -5.19118262	     18.46373885	      2.84747721	     12.75450569	    -15.26116107	     -0.26635751	     -6.42429986	     -2.15954602	     -8.13639554	     -9.50477049	      3.16195428	      5.75436626	     13.89739309	    -10.86522647	     18.08492842	     23.20446048	     89.95437384	      0.00000000	      0.00000000	     -1.86784503	      6.51203251	    -14.81513742	     17.46333748	     89.95437384	      0.00000000	      0.00000000
      2.71000000	      2.11960075	     -2.02332417	      0.16749548	      0.74096202	      0.88884058	      1.01088858	     -8.86781194	      2.09687860	    -12.52185678	    -23.95686573	     -0.41812619	     10.10514739	      4.34527165	     -5.12087806	     17.92114675	      2.23430051	     13.50715958	    -15.22572277	     -0.26573899	     -5.78880525	     -1.21925671	     -7.97350623	     -9.40321927	      2.45562138	      5.77631858	     13.79134521	    -10.45650724	     17.74653316	     22.35180513	     89.95437384	      0.00000000	      0.00000000	     -1.75337887	      6.51862895	    -15.41337994	     16.91231079	     89.95437384	      0.00000000	      0.00000000
      2.72000000	      1.89743482	     -1.79344996	      0.16667984	      0.74834301	      0.88937479	      1.00958728	     -8.81499956	      1.74103221	    -12.21644564	    -24.43057703	     -0.42639401	      9.55631546	      4.13131554	     -5.00437468	     17.74159158	      1.82557254	     13.20475800	    -15.45270112	     -0.26970051	     -5.42057984	     -1.31827121	     -7.89547041	     -9.13308996	      2.15585172	      5.39931122	     13.44701936	    -10.22058998	     17.67977422	     22.05793224	     89.95437384	      0.00000000	      0.00000000	     -1.71512377	      6.53214637	    -15.61837004	     16.57731845	     89.95437384	      0.00000000	      0.00000000
      2.73000000	      1.66215563	     -1.75135214	      0.13696273	      0.75569619	      0.88996891	      1.00865430	     -8.69318098	      1.61050290	    -11.93997109	    -24.95874289	     -0.43561224	      9.15853283	      3.96762600	     -4.88963671	     17.68839248	      1.68678599	     12.98420039	    -15.85198605	     -0.27666935	     -5.34850263	     -1.26235906	     -7.72896135	     -8.87886928	      2.03002939	      5.16953927	     12.87265378	    -10.13929387	     17.62365643	     22.20015920	     89.95437384	      0.00000000	      0.00000000	     -1.81886294	      6.65560556	    -15.56688161	     16.82273286	     89.95437384	      0.00000000	      0.00000000
      2.74000000	      1.55717118	     -1.19613915	     -0.12578105	      0.76306709	      0.89102078	      1.00727478	     -8.37521825	      0.69718550	    -11.81714305	    -26.10614442	     -0.45563818	      7.65597723	      3.23746171	     -4.58083837	     17.02834206	      0.90706430	     12.89865575	    -15.48270344	     -0.27022415	     -4.36796735	     -1.12588424	     -7.63940172	     -8.69712225	      1.38873109	      5.00254277	     12.76081644	     -9.75471758	     17.41336532	     21.19258913	     89.95437384	      0.00000000	      0.00000000	     -1.50498543	      6.63447887	    -16.30216480	     16.04084521	     89.95437384	      0.00000000	      0.00000000
      2.75000000	      1.33817945	     -1.18659210	     -0.00623757	      0.77075528	      0.89181894	      1.00607128	     -8.24932881	      0.63522634	    -11.53767854	    -26.67513559	     -0.46556894	      7.27447525	      3.11118112	     -4.47330503	     16.88537105	      0.81195790	     12.76695798	    -15.83784331	     -0.27642251	     -4.30896694	     -1.02374393	     -7.46813191	     -8.40611570	      1.32370253	      4.69024291	     12.07926640	     -9.71631271	     17.34428983	     21.32191365	     89.95437384	      0.00000000	      0.00000000	     -1.59129152	      6.76362947	    -16.26132206	     16.32289334	     89.95437384	      0.00000000	      0.00000000
      2.76000000	      1.27342399	     -0.85501424	     -0.18822369	      0.77812504	      0.89301769	      1.00450875	     -7.73938172	     -0.12180657	    -11.69503626	    -28.15777898	     -0.49144595	      5.34968190	      2.44088693	     -4.09658287	     16.00764978	      0.23175869	     12.60605303	    -15.11520830	     -0.26381015	     -3.43029421	     -0.89006895	     -7.34061354	     -8.27564519	      0.98215725	      4.44817161	     11.92190898	     -9.44661138	     17.08871581	     20.47506745	     89.95437384	      0.00000000	      0.00000000	     -1.26592237	      6.73975721	    -17.03100148	     15.67670779	     89.95437384	      0.00000000	      0.00000000
      2.77000000	      1.25411504	     -0.27743698	     -0.22237133	      0.78562678	      0.89422308	      1.00257961	     -7.36513627	     -1.13310132	    -11.86057136	    -29.54682750	     -0.51568942	      4.19959812	      2.37308027	     -3.36362548	     14.92901633	     -0.84052815	     11.76758093	    -14.02498887	     -0.24478223	     -3.02148470	      1.17391242	     -6.42852035	     -8.21193920	      0.37565148	      4.26536077	     11.36478342	     -9.24433451	     16.08567106	     20.26376625	     89.95437384	      0.00000000	      0.00000000	     -1.13994794	      7.18774224	    -19.41638543	     16.00432272	     89.95437384	      0.00000000	      0.00000000
      2.78000000	      0.98488102	     -0.19916740	     -0.23348304	      0.79280386	      0.89487869	      1.00090981	     -6.53407407	     -1.57216565	    -11.90636000	    -31.09943137	     -0.54278747	      2.54497962	      2.12550973	     -3.01072960	     14.54441792	     -1.05018675	     11.92935500	    -13.76608398	     -0.24026349	     -2.56285823	      0.90907881	     -6.27917472	     -7.88025830	      0.32267169	      3.95952404	     10.97481845	     -9.21943407	     16.19545369	     19.91707189	     89.95437384	      0.00000000	      0.00000000	     -0.91446146	      7.18281429	    -19.63557300	     15.80179579	     89.95437384	      0.00000000	      0.00000000
      2.79000000	      0.78769342	     -0.18649864	     -0.31107995	      0.79985926	      0.89551105	      0.99931316	     -5.63786994	     -1.97573761	    -11.83507693	    -32.84505714	     -0.57325439	      0.91849949	      1.97028590	     -2.70636119	     14.04478129	     -1.17431318	     12.18396155	    -13.41976926	     -0.23421916	     -2.23699905	      0.53960904	     -6.16958054	     -7.65341611	      0.34195231	      3.71711991	     10.62465301	     -9.22115557	     16.37810238	     19.55454334	     89.95437384	      0.00000000	      0.00000000	     -0.73922932	      7.21159203	    -19.86566742	     15.82719108	     89.95437384	      0.00000000	      0.00000000
      2.80000000	      0.53135771	     -0.03179899	     -0.45925274	      0.80681502	      0.89589596	      0.99769520	     -4.48877425	     -2.56276618	    -11.63002033	    -34.79531248	     -0.60729277	     -1.04698893	      1.69486495	     -2.34292031	     13.61960763	     -1.43466085	     12.60697859	    -13.07389465	     -0.22818251	     -1.94627104	      0.04964241	     -6.07168017	     -7.35279594	      0.21575604	      3.52341881	     10.29470101	     -9.23183584	     16.59163958	     19.19668668	     89.95437384	      0.00000000	      0.00000000	     -0.59403447	      7.31720815	    -20.32422432	     15.98543850	     89.95437384	      0.00000000	      0.00000000
      2.81000000	      0.33069018	      0.11292615	     -0.64260213	      0.81368431	      0.89624170	      0.99608194	     -3.31251297	     -3.17683454	    -11.41527744	    -36.83496538	     -0.64289143	     -3.04734181	      1.45877330	     -1.98463821	     13.18375002	     -1.66869923	     13.11813709	    -12.81694187	     -0.22369784	     -1.68721945	     -0.49391322	     -5.99968777	     -7.12670636	      0.10368252	      3.37718084	     10.00657607	     -9.26504095	     16.89811801	     18.77368014	     89.95437384	      0.00000000	      0.00000000	     -0.33260890	      7.40463210	    -20.76942661	     16.06835639	     89.95437384	      0.00000000	      0.00000000
      2.82000000	      0.20070930	      0.23357888	     -0.76613758	      0.82032291	      0.89650957	      0.99450465	     -2.13109167	     -3.70361620	    -11.08655705	    -38.88265711	     -0.67863039	     -5.22791609	      1.37248838	     -1.65066085	     12.73214444	     -1.86440530	     13.62051050	    -12.64091049	     -0.22062551	     -1.33306803	     -1.08252229	     -5.96497951	     -7.01334576	      0.01553959	      3.21274159	      9.75225985	     -9.32124776	     17.26646097	     18.39585124	     89.95437384	      0.00000000	      0.00000000	     -0.00624505	      7.54408145	    -21.20105691	     16.24169105	     89.95437384	      0.00000000	      0.00000000
      2.83000000	      0.12769535	      0.41341348	     -1.00290146	      0.82716858	      0.89664659	      0.99296520	     -0.94679004	     -4.34972720	    -10.71388280	    -40.94827990	     -0.71468231	     -7.73660924	      1.13717257	     -1.28598453	     12.22716854	     -2.10438907	     14.11291155	    -12.52946457	     -0.21868041	     -0.96039145	     -1.69364756	     -5.95062691	     -6.90468919	     -0.12471539	      3.05642192	      9.54608442	     -9.35244121	     17.62881591	     17.95546677	     89.95437384	      0.00000000	      0.00000000	      0.26653379	      7.66783714	    -21.46465460	     16.43404493	     89.95437384	      0.00000000	      0.00000000
